<svg width="24" height="24" viewBox="0 0 24 24" fill="none" xmlns="http://www.w3.org/2000/svg">
<path fill-rule="evenodd" clip-rule="evenodd" d="M15.5 22H9.667C6.919 22 5 20.1742 5 17.5582C5 14.9422 8.974 10.7292 9.144 10.5502L9.667 10L10.189 10.5502C10.311 10.6775 12.372 12.8671 13.54 15.0622C14.29 13.9942 15.045 13.1634 15.108 13.0942L15.5 12.6668L15.892 13.0942C16.019 13.2335 19 16.5095 19 18.5449C19 20.5794 17.561 22 15.5 22Z" stroke="#C8C8C8" stroke-width="1.5" stroke-linecap="round" stroke-linejoin="round"/>
<path fill-rule="evenodd" clip-rule="evenodd" d="M9.27273 2C9.27273 2 2 8.76546 2 13.6709C2 18.5745 4.99091 22 9.27273 22H15.1818C19.1964 22 22 18.8864 22 14.4282C22 9.96909 15.1818 3.81818 15.1818 3.81818" stroke="#C8C8C8" stroke-width="1.5" stroke-linecap="round" stroke-linejoin="round"/>
</svg>
